<?xml version="1.0" standalone="no"?>
<!DOCTYPE svg PUBLIC "-//W3C//DTD SVG 1.1//EN" "http://www.w3.org/Graphics/SVG/1.1/DTD/svg11.dtd" >
<svg xmlns="http://www.w3.org/2000/svg" xmlns:xlink="http://www.w3.org/1999/xlink" version="1.1">
<metadata>
Created by FontForge 20201107 at Mon May 26 22:46:05 2014
 By 
Copyright (c) 2014 by Antonio Rodrigues Jr. All rights reserved.
</metadata>
<defs>
<font id="Oslo" horiz-adv-x="810" >
  <font-face 
    font-family="Oslo"
    font-weight="400"
    font-stretch="normal"
    units-per-em="1000"
    panose-1="2 0 0 0 0 0 0 0 0 0"
    ascent="750"
    descent="-250"
    x-height="800"
    cap-height="800"
    bbox="-8 -110 808 1002"
    underline-thickness="50"
    underline-position="-100"
    unicode-range="U+0020-2212"
  />
<missing-glyph horiz-adv-x="0" 
 />
    <glyph glyph-name=".notdef" horiz-adv-x="0" 
 />
    <glyph glyph-name=".null" horiz-adv-x="0" 
 />
    <glyph glyph-name="nonmarkingreturn" horiz-adv-x="333" 
 />
    <glyph glyph-name="space" unicode=" " horiz-adv-x="410" 
 />
    <glyph glyph-name="exclam" unicode="!" horiz-adv-x="20" 
d="M0 200v600h10v-600h-10zM0 0v100h10v-100h-10z" />
    <glyph glyph-name="quotedbl" unicode="&#x22;" horiz-adv-x="110" 
d="M30 800l-20 -200h-10l20 200h10zM100 800l-20 -200h-10l20 200h10z" />
    <glyph glyph-name="numbersign" unicode="#" horiz-adv-x="410" 
d="M0 500h117l23 100h10l-23 -100h190l23 100h10l-23 -100h73v-10h-75l-43 -190h118v-10h-120l-20 -90h-10l20 90h-190l-20 -90h-10l20 90h-70v10h72l43 190h-115v10zM82 300h190l43 190h-190z" />
    <glyph glyph-name="dollar" unicode="$" 
d="M395 0h-195q-41 0 -77 15.5t-63 42.5t-43 63.5t-17 78.5h10q1 -39 15.5 -73.5t40 -60t59 -40.5t71.5 -16h199v385h-195q-41 0 -77.5 16t-63.5 43t-43 64t-16 79t16 79t43 64.5t63.5 43.5t77.5 16h195v100h10v-100h199q40 -1 75.5 -17t62 -43t42.5 -63.5t16 -76.5h-10
q0 39 -15.5 74t-41 60.5t-60 40.5t-73.5 15h-195v-385h199q40 -1 76 -17t62.5 -43.5t42 -64t15.5 -77.5q0 -42 -16 -79t-43 -64.5t-63.5 -43.5t-77.5 -16h-195v-100h-10v100zM10 597q0 -40 14.5 -74.5t40 -60.5t59 -41t72.5 -16h199v385h-195q-39 0 -74 -15t-60.5 -41.5
t-40.5 -61.5t-15 -75zM790 203q0 40 -15 75t-40.5 61t-60.5 41t-74 15h-195v-385h195q39 0 74 15t60.5 41.5t40.5 61.5t15 75z" />
    <glyph glyph-name="uni0025" unicode="%" horiz-adv-x="310" 
d="M100 102q0 21 8 40t21.5 33t31.5 22t39 8t39 -8t31.5 -22t21.5 -33t8 -40t-8 -40t-21.5 -32.5t-31.5 -21.5t-39 -8t-39 8t-31.5 21.5t-21.5 32.5t-8 40zM110 102q0 -19 7 -36t19 -29.5t28.5 -19.5t35.5 -7t35.5 7t28.5 19.5t19 29.5t7 36t-7 36t-19 29.5t-28.5 20
t-35.5 7.5t-35.5 -7.5t-28.5 -20t-19 -29.5t-7 -36zM0 697q0 21 8 40t21.5 33t31.5 22t39 8t39 -8t31.5 -22t21.5 -33t8 -40t-8 -40t-21.5 -32.5t-31.5 -21.5t-39 -8t-39 8t-31.5 21.5t-21.5 32.5t-8 40zM10 697q0 -19 7 -36t19 -29.5t28.5 -19.5t35.5 -7t35.5 7t28.5 19.5
t19 29.5t7 36t-7 36t-19 29.5t-28.5 20t-35.5 7.5t-35.5 -7.5t-28.5 -20t-19 -29.5t-7 -36zM290 800h10l-290 -800h-10z" />
    <glyph glyph-name="ampersand" unicode="&#x26;" 
d="M300 395h-108q-38 -2 -71 -17.5t-58 -41.5t-39 -60.5t-14 -73.5q0 -40 15 -75t40.5 -61t60.5 -41t74 -15h400q39 0 74 15.5t60.5 41.5t40.5 61t15 75v192h-290v10h300v-405h-10v140q-10 -30 -28.5 -56t-43.5 -44.5t-55.5 -29t-64.5 -10.5h-398q-41 0 -77.5 16t-63.5 43
t-43 64t-16 79q0 36 12 68.5t33 58.5t49.5 44.5t61.5 26.5q-33 7 -61.5 25.5t-49.5 44.5t-33 58.5t-12 68.5q0 42 16 79t43 64.5t63.5 43.5t77.5 16h400q41 0 77 -16t63 -43.5t43 -63.5t17 -77h-10q-1 39 -16 73.5t-41 60.5t-61 41t-74 15h-398q-39 0 -74 -15t-60.5 -41.5
t-40.5 -61.5t-15 -75t15 -75t40.5 -61t60.5 -41t74 -15h100v-10z" />
    <glyph glyph-name="quotesingle" unicode="'" horiz-adv-x="40" 
d="M30 800l-20 -200h-10l20 200h10z" />
    <glyph glyph-name="parenleft" unicode="(" horiz-adv-x="85" 
d="M10 398q0 -72 4.5 -139t13 -124.5t20 -104.5t26.5 -80h-7q-15 34 -27.5 82t-21 105.5t-13.5 123.5t-5 137q0 72 5 138.5t14 125t21.5 106t27.5 82.5h7v-2q-15 -33 -27 -80.5t-20.5 -105.5t-13 -125t-4.5 -139z" />
    <glyph glyph-name="parenright" unicode=")" horiz-adv-x="85" 
d="M65 402q0 72 -4.5 139t-13 124.5t-20 104.5t-26.5 80h7q15 -35 27.5 -82.5t21 -105t13.5 -123.5t5 -137q0 -72 -5 -138.5t-14 -125t-21.5 -106.5t-27.5 -82h-7v2q15 33 27 80.5t20.5 105.5t13 125t4.5 139z" />
    <glyph glyph-name="asterisk" unicode="*" horiz-adv-x="299" 
d="M149 657l137 43l3 -10l-136 -43l92 -109l-8 -6l-93 108l-92 -108l-8 6l91 109l-135 43l3 10l136 -43v143h10v-143z" />
    <glyph glyph-name="plus" unicode="+" horiz-adv-x="410" 
d="M0 405h195v195h10v-195h195v-10h-195v-195h-10v195h-195v10z" />
    <glyph glyph-name="comma" unicode="," horiz-adv-x="40" 
d="M30 100l-20 -200h-10l20 200h10z" />
    <glyph glyph-name="hyphen" unicode="-" horiz-adv-x="410" 
d="M0 400h400v-10h-400v10z" />
    <glyph glyph-name="period" unicode="." horiz-adv-x="20" 
d="M10 100v-100h-10v100h10z" />
    <glyph glyph-name="slash" unicode="/" horiz-adv-x="110" 
d="M90 800h10l-90 -800h-10z" />
    <glyph glyph-name="zero" unicode="0" 
d="M0 400q0 81 30 153t83 126l-119 121h13l113 -114q54 54 126 84t154 30q83 0 156 -31.5t127 -85.5t85.5 -127t31.5 -156q0 -82 -30 -153.5t-83 -125.5l121 -121h-15l-114 113q-54 -53 -126 -83t-153 -30q-83 0 -156 31.5t-127 85.5t-85.5 127t-31.5 156zM10 400
q0 -81 30.5 -152t83.5 -124t124 -83.5t152 -30.5q79 0 148.5 29.5t123.5 81.5l-551 551q-52 -54 -81.5 -123.5t-29.5 -148.5zM400 790q-80 0 -149.5 -30t-122.5 -81l551 -551q52 54 81.5 123t29.5 149q0 81 -30.5 152t-83.5 124t-124 83.5t-152 30.5z" />
    <glyph glyph-name="one" unicode="1" 
d="M0 800h405v-790h395v-10h-800v10h395v780h-395v10z" />
    <glyph glyph-name="two" unicode="2" 
d="M200 790q-39 0 -73.5 -15.5t-60 -41.5t-41 -60t-15.5 -73h-10q0 41 16 77t43 63.5t63.5 43.5t77.5 16h400q41 0 77.5 -16t63.5 -43.5t43 -64.5t16 -79t-16 -79t-43 -64t-63.5 -43t-77.5 -16h-400q-39 0 -74 -15.5t-60.5 -42t-40.5 -61.5t-15 -74v-192h790v-10h-800v202
q0 42 15.5 78.5t42.5 64t63.5 44t78.5 16.5h400q39 0 74 15t60.5 41t40.5 61t15 75t-15 75t-40.5 61.5t-60.5 41.5t-74 15h-400v0z" />
    <glyph glyph-name="three" unicode="3" 
d="M200 405h400q39 0 74 15t60.5 41t40.5 61t15 75t-15 75t-40.5 61.5t-60.5 41.5t-74 15h-398q-39 0 -74 -15t-61 -41t-41.5 -60.5t-15.5 -73.5h-10q0 41 16 77t43 63.5t63.5 43.5t77.5 16h400q41 0 77.5 -16t63.5 -43.5t43 -64.5t16 -79q0 -36 -12 -68.5t-33 -58.5
t-49.5 -44.5t-61.5 -25.5q33 -8 61.5 -26.5t49.5 -44.5t33 -58.5t12 -68.5q0 -42 -16 -79t-43 -64t-63.5 -43t-77.5 -16h-398q-42 0 -78.5 15.5t-64 42.5t-43.5 63.5t-16 78.5h10q0 -39 15.5 -73.5t41 -60.5t60 -41t73.5 -15h400q39 0 74 15t60.5 41t40.5 61t15 75
q0 39 -14 73.5t-39 60.5t-58 41.5t-71 17.5h-408v10z" />
    <glyph glyph-name="four" unicode="4" 
d="M0 200l598 597v3h10v-595h192v-10h-192v-195h-10v195h-588l-2 -2zM598 205v578l-578 -578h578z" />
    <glyph glyph-name="five" unicode="5" 
d="M800 790h-790v-385h590v-10h-600v405h800v-10zM600 0h-398q-42 0 -79 16t-64 43.5t-43 64.5t-16 79v3h10v-3q0 -40 15 -75t41 -61.5t61 -41.5t75 -15h398v-10zM596 0h1q42 0 79 16t64.5 43t43.5 64t16 79t-16 79t-43.5 64.5t-64.5 43.5t-79 16h-1v-10h1q40 0 75 -15.5
t61 -41.5t41.5 -61t15.5 -75t-15.5 -75t-41.5 -61t-61 -41t-75 -15h-1v-9q0 -1 1 -1q42 0 79 16t64.5 43t43.5 64t16 79t-16 79t-43.5 64.5t-64.5 43.5t-79 16h-1v-10h1q40 0 75 -15.5t61 -41.5t41.5 -61t15.5 -75t-15.5 -75t-41.5 -61t-61 -41t-75 -15h-1v-10z" />
    <glyph glyph-name="six" unicode="6" 
d="M10 266q10 30 28.5 55.5t43.5 44t55 29t63 10.5h400q41 0 77.5 -16t63.5 -43.5t43 -64.5t16 -79t-16 -79t-43 -64t-63.5 -43t-77.5 -16h-400q-41 0 -77.5 16t-63.5 43t-43 64t-16 79v395q0 42 15.5 78.5t42.5 64t63.5 44t78.5 16.5h398q42 0 78.5 -16t63.5 -43t43 -63.5
t17 -77.5h-10q-1 39 -16 73t-40.5 60t-60 41.5t-73.5 15.5h-400q-39 0 -74 -15.5t-60.5 -42t-40.5 -61.5t-15 -74v-331zM790 202q0 40 -15 75t-40.5 61.5t-60.5 41.5t-74 15h-400q-39 0 -73 -14.5t-59.5 -39.5t-41 -58.5t-16.5 -72.5v-8q0 -40 15 -75t40.5 -61t60.5 -41
t74 -15h400q39 0 74 15t60.5 41t40.5 61t15 75z" />
    <glyph glyph-name="seven" unicode="7" 
d="M0 800h800v-10h-3l-790 -790h-7v8l783 782h-773v-190h-10v200z" />
    <glyph glyph-name="eight" unicode="8" 
d="M800 597q0 -36 -12 -68.5t-33 -58.5t-49.5 -44.5t-61.5 -25.5q33 -8 61.5 -26.5t49.5 -44.5t33 -58.5t12 -68.5q0 -42 -15.5 -78.5t-42 -63.5t-62.5 -43t-76 -17h-404q-41 0 -77.5 16t-63.5 43t-43 64t-16 79q0 36 12 68.5t33 58.5t49.5 44.5t61.5 26.5q-33 7 -61.5 25.5
t-49.5 44.5t-33 58.5t-12 68.5q0 42 16 79t43 64.5t63.5 43.5t77.5 16h400q41 0 77.5 -16t63.5 -43.5t43 -64.5t16 -79zM10 597q0 -39 14 -73.5t38.5 -60.5t58 -41.5t71.5 -16.5h8h404h4q38 1 71 16.5t58 41.5t39 60.5t14 73.5q0 40 -15 75t-40.5 61.5t-60.5 41.5t-74 15
h-400q-39 0 -74 -15t-60.5 -41.5t-40.5 -61.5t-15 -75zM790 202q0 39 -14 73.5t-39 60.5t-58 41.5t-71 17.5h-8h-400q-39 0 -74 -15t-60.5 -41.5t-40.5 -61.5t-15 -75t15 -75t40.5 -61t60.5 -41t74 -15h404q39 1 72.5 16t59 41t40 60.5t14.5 74.5z" />
    <glyph glyph-name="nine" unicode="9" 
d="M271 0l416 415q-42 -20 -87 -20h-400q-41 0 -77.5 16t-63.5 43t-43 64t-16 79t16 79t43 64.5t63.5 43.5t77.5 16h400q41 0 77.5 -16t63.5 -43.5t43 -64.5t16 -79q0 -48 -20 -88t-53 -68l-441 -441h-15zM10 597q0 -40 15 -75t40.5 -61t60.5 -41t74 -15h400q33 0 63 10.5
t55 30.5l13 13v-1q27 26 43 61.5t16 77.5q0 40 -15 75t-40.5 61.5t-60.5 41.5t-74 15h-400q-39 0 -74 -15t-60.5 -41.5t-40.5 -61.5t-15 -75z" />
    <glyph glyph-name="colon" unicode=":" horiz-adv-x="20" 
d="M10 100v-100h-10v100h10zM10 400v-100h-10v100h10z" />
    <glyph glyph-name="semicolon" unicode=";" horiz-adv-x="40" 
d="M30 400v-100h-10v100h10zM30 100l-20 -200h-10l20 200h10z" />
    <glyph glyph-name="less" unicode="&#x3c;" horiz-adv-x="65" 
d="M55 100h-10l-45 200l45 200h10l-45 -200z" />
    <glyph glyph-name="equal" unicode="=" horiz-adv-x="410" 
d="M0 500h400v-10h-400v10zM0 300h400v-10h-400v10z" />
    <glyph glyph-name="greater" unicode="&#x3e;" horiz-adv-x="65" 
d="M0 500h10l45 -200l-45 -200h-10l45 200z" />
    <glyph glyph-name="question" unicode="?" 
d="M395 0v100h10v-100h-10zM0 597q0 42 15.5 78.5t42.5 64t63.5 44t78.5 16.5h400q41 0 77.5 -16t63.5 -43.5t43 -64.5t16 -79t-16 -79t-43 -64t-63.5 -43t-77.5 -16h-5q-39 0 -74 -15.5t-60.5 -42t-40.5 -61.5t-15 -74h-10q0 42 15.5 78.5t42.5 64t63.5 44t78.5 16.5h5
q39 0 74 15t60.5 41t40.5 61t15 75t-15 75t-40.5 61.5t-60.5 41.5t-74 15h-400q-39 0 -74 -15.5t-60.5 -42t-40.5 -61.5t-15 -74v-3h-10v3z" />
    <glyph glyph-name="at" unicode="@" horiz-adv-x="610" 
d="M545 210q19 0 32 13t13 32v145q0 60 -23 113t-62 92t-92 62t-113 23t-113 -23t-92 -62t-62 -92t-23 -113t23 -113t62 -92t92 -62t113 -23h200v-10h-200q-62 0 -117 23.5t-95.5 64t-64 95.5t-23.5 117t23.5 117t64 95.5t95.5 64t117 23.5t117 -23.5t95.5 -64t64 -95.5
t23.5 -117v-146q-1 -22 -16 -37t-35 -17h-4q-23 0 -38.5 15.5t-16.5 37.5v84q-10 -30 -28.5 -55t-43.5 -43.5t-55 -28.5t-63 -10q-41 0 -77.5 16t-63.5 43t-43 63.5t-16 77.5t16 77.5t43 63.5t63.5 43t77.5 16t77.5 -16t63.5 -43t43 -63.5t16 -77.5v-11v-134q0 -19 13 -32
t32 -13zM110 400q0 -39 15 -74t40.5 -60.5t60.5 -40.5t74 -15t74 15t60.5 40.5t40.5 60.5t15 74t-15 74t-40.5 60.5t-60.5 40.5t-74 15t-74 -15t-60.5 -40.5t-40.5 -60.5t-15 -74z" />
    <glyph glyph-name="A" unicode="A" 
d="M395 800h10l395 -800h-12l-195 395h-386l-195 -395h-12zM212 405h376l-188 382z" />
    <glyph glyph-name="B" unicode="B" 
d="M0 800h597q42 0 79 -16t64.5 -43.5t43.5 -64.5t16 -79q0 -36 -12 -68.5t-33 -58.5t-50 -44.5t-63 -25.5q34 -8 63 -26.5t50 -44.5t33 -58.5t12 -68.5q0 -42 -16 -79t-43.5 -64t-64.5 -43t-79 -16h-597v800zM10 405h587q40 0 75 15t61 41t41.5 61t15.5 75t-15.5 75
t-41.5 61t-61 41.5t-75 15.5h-587v-385zM10 10h587q40 0 75 15t61 41t41.5 61t15.5 75t-15.5 75t-41.5 61t-61 41.5t-75 15.5h-587v-385z" />
    <glyph glyph-name="C" unicode="C" 
d="M10 400q0 -81 30.5 -152t83.5 -124t124 -83.5t152 -30.5q60 0 115.5 17.5t102 49.5t83 75.5t58.5 96.5h11q-22 -55 -59 -100.5t-85.5 -78.5t-105.5 -51.5t-120 -18.5q-83 0 -156 31.5t-127 85.5t-85.5 127t-31.5 156t31.5 156t85.5 127t127 85.5t156 31.5q63 0 120 -18.5
t105.5 -51.5t85.5 -78.5t59 -100.5h-11q-22 52 -58.5 96t-83 76t-102 49.5t-115.5 17.5q-81 0 -152 -30.5t-124 -83.5t-83.5 -124t-30.5 -152z" />
    <glyph glyph-name="D" unicode="D" 
d="M0 800h400q83 0 156 -31.5t127 -85.5t85.5 -127t31.5 -156t-31.5 -156t-85.5 -127t-127 -85.5t-156 -31.5h-400v800zM10 10h390q81 0 152 30.5t124 83.5t83.5 124t30.5 152t-30.5 152t-83.5 124t-124 83.5t-152 30.5h-390v-780z" />
    <glyph glyph-name="E" unicode="E" 
d="M0 800h800v-10h-790v-385h790v-10h-790v-385h790v-10h-800v800z" />
    <glyph glyph-name="F" unicode="F" 
d="M0 800h800v-10h-790v-385h790v-10h-790v-395h-10v800z" />
    <glyph glyph-name="G" unicode="G" 
d="M800 0h-10v312q-15 -67 -51.5 -124t-88 -99t-115.5 -65.5t-135 -23.5q-83 0 -156 31.5t-127 85.5t-85.5 127t-31.5 156t31.5 156t85.5 127t127 85.5t156 31.5q63 0 120 -18.5t105.5 -51.5t85.5 -78.5t59 -100.5h-11q-22 52 -58.5 96t-83 76t-102 49.5t-115.5 17.5
q-81 0 -152 -30.5t-124 -83.5t-83.5 -124t-30.5 -152t30.5 -152t83.5 -124t124 -83.5t152 -30.5q79 0 149.5 30t123.5 82.5t84.5 122.5t32.5 150h-331l1 10h340v-405z" />
    <glyph glyph-name="H" unicode="H" 
d="M0 0v800h10v-395h780v395h10v-800h-10v395h-780v-395h-10z" />
    <glyph glyph-name="I" unicode="I" 
d="M0 800h800v-10h-395v-780h395v-10h-800v10h395v780h-395v10z" />
    <glyph glyph-name="J" unicode="J" 
d="M10 400q0 -81 30.5 -152t83.5 -124t124 -83.5t152 -30.5t152 30.5t124 83.5t83.5 124t30.5 152v390h-390v10h400v-400q0 -83 -31.5 -156t-85.5 -127t-127 -85.5t-156 -31.5t-156 31.5t-127 85.5t-85.5 127t-31.5 156h10z" />
    <glyph glyph-name="K" unicode="K" 
d="M804 0h-15l-389 393l-390 -393h-10v800h10v-785l780 785h14l-397 -400z" />
    <glyph glyph-name="L" unicode="L" 
d="M0 800h10v-790h790v-10h-800v800z" />
    <glyph glyph-name="M" unicode="M" 
d="M790 786l-384 -387l-6 -6l-7 7l-383 386v-786h-10v800h10l390 -394l390 394h10v-800h-10v786z" />
    <glyph glyph-name="N" unicode="N" 
d="M10 786v-786h-10v800h10l780 -786v786h10v-800h-10z" />
    <glyph glyph-name="O" unicode="O" 
d="M0 400q0 83 31.5 156t85.5 127t127 85.5t156 31.5t156 -31.5t127 -85.5t85.5 -127t31.5 -156t-31.5 -156t-85.5 -127t-127 -85.5t-156 -31.5t-156 31.5t-127 85.5t-85.5 127t-31.5 156zM10 400q0 -81 30.5 -152t83.5 -124t124 -83.5t152 -30.5t152 30.5t124 83.5
t83.5 124t30.5 152t-30.5 152t-83.5 124t-124 83.5t-152 30.5t-152 -30.5t-124 -83.5t-83.5 -124t-30.5 -152z" />
    <glyph glyph-name="P" unicode="P" 
d="M10 0h-10v800h597q42 0 79 -16t64.5 -43.5t43.5 -64.5t16 -79t-16 -79t-43.5 -64t-64.5 -43t-79 -16h-587v-395zM10 405h587q40 0 75 15t61 41t41.5 61t15.5 75t-15.5 75t-41.5 61t-61 41.5t-75 15.5h-587v-385z" />
    <glyph glyph-name="Q" unicode="Q" 
d="M0 400q0 83 31.5 156t85.5 127t127 85.5t156 31.5t156 -31.5t127 -85.5t85.5 -127t31.5 -156q0 -82 -30.5 -154t-83.5 -126l120 -120h-15l-113 112q-54 -52 -125.5 -82t-152.5 -30q-83 0 -156 31.5t-127 85.5t-85.5 127t-31.5 156zM10 400q0 -81 30.5 -152t83.5 -124
t124 -83.5t152 -30.5q79 0 148.5 29.5t122.5 80.5l-280 280h14l273 -273q52 54 82 123.5t30 149.5q0 81 -30.5 152t-83.5 124t-124 83.5t-152 30.5t-152 -30.5t-124 -83.5t-83.5 -124t-30.5 -152z" />
    <glyph glyph-name="R" unicode="R" 
d="M0 800h597q42 0 79 -16t64.5 -43.5t43.5 -64.5t16 -79t-16 -79t-43.5 -64t-64.5 -43t-79 -16h-185l396 -395h-15l-395 395h-388v-395h-10v800zM10 405h587q40 0 75 15t61 41t41.5 61t15.5 75t-15.5 75t-41.5 61t-61 41.5t-75 15.5h-587v-385z" />
    <glyph glyph-name="S" unicode="S" 
d="M790 203q0 40 -15 75t-40.5 61t-60.5 41t-74 15h-400q-41 0 -77.5 16t-63.5 43t-43 64t-16 79t16 79t43 64.5t63.5 43.5t77.5 16h404q40 -1 75.5 -17t62 -43t42.5 -63.5t16 -76.5h-10q0 39 -15.5 74t-41 60.5t-60 40.5t-73.5 15h-400q-39 0 -74 -15t-60.5 -41.5
t-40.5 -61.5t-15 -75t14.5 -74.5t40 -60.5t59 -41t72.5 -16h408q40 -1 76 -17t62.5 -43.5t42 -64t15.5 -77.5q0 -42 -16 -79t-43 -64.5t-63.5 -43.5t-77.5 -16h-400q-41 0 -77 15.5t-63 42.5t-43 63.5t-17 78.5h10q1 -39 15.5 -73.5t40 -60t59 -40.5t71.5 -16h404
q39 0 74 15t60.5 41.5t40.5 61.5t15 75z" />
    <glyph glyph-name="T" unicode="T" 
d="M0 800h800v-10h-800v10zM395 800h10v-800h-10v800z" />
    <glyph glyph-name="U" unicode="U" 
d="M800 400q0 -83 -31.5 -156t-85.5 -127t-127 -85.5t-156 -31.5t-155.5 31t-127 85t-86 126.5t-31.5 155.5v402h10v-400q0 -81 30.5 -152t83.5 -124t124 -83.5t152 -30.5q80 0 151 30.5t124 83t84 123.5t31 151v402h10v-400z" />
    <glyph glyph-name="V" unicode="V" 
d="M788 800h12l-395 -800h-10l-395 800h12l388 -787z" />
    <glyph glyph-name="W" unicode="W" 
d="M0 800h10v-786l383 386l7 7l6 -6l384 -387v786h10v-800h-10l-390 394l-390 -394h-10v800z" />
    <glyph glyph-name="X" unicode="X" 
d="M-8 0l400 400l-398 400h13l393 -392l393 392h14l-400 -400l401 -400h-15l-393 393l-393 -393h-15z" />
    <glyph glyph-name="Y" unicode="Y" 
d="M395 397l-3 3l-399 400h14l393 -392l393 392h14l-402 -402v-398h-10v397z" />
    <glyph glyph-name="Z" unicode="Z" 
d="M1 800h799v-7l-783 -783h783v-10h-800v8l783 782h-782v10z" />
    <glyph glyph-name="bracketleft" unicode="[" horiz-adv-x="110" 
d="M100 890h-90v-980h90v-10h-100v1000h100v-10z" />
    <glyph glyph-name="backslash" unicode="\" horiz-adv-x="110" 
d="M100 0h-10l-90 800h10z" />
    <glyph glyph-name="bracketright" unicode="]" horiz-adv-x="110" 
d="M0 900h100v-1000h-100v10h90v980h-90v10z" />
    <glyph glyph-name="asciicircum" unicode="^" horiz-adv-x="210" 
d="M200 880v-10l-100 20l-100 -20v10l100 20z" />
    <glyph glyph-name="underscore" unicode="_" horiz-adv-x="410" 
d="M0 -100h400v-10h-400v10z" />
    <glyph glyph-name="grave" unicode="`" horiz-adv-x="210" 
d="M0 900l200 -20v-10l-200 20v10z" />
    <glyph glyph-name="a" unicode="a" horiz-adv-x="410" 
d="M292 395h-185l-96 -395h-11l195 800h10l195 -800h-11zM110 405h180l-90 370z" />
    <glyph glyph-name="b" unicode="b" horiz-adv-x="410" 
d="M0 800h197q42 0 79 -16t64.5 -43.5t43.5 -64.5t16 -79q0 -36 -12 -68.5t-33.5 -58.5t-50.5 -44.5t-63 -25.5q34 -8 63 -26t50.5 -44.5t33.5 -59t12 -68.5q0 -42 -16 -79t-43.5 -64t-64.5 -43t-79 -16h-197v800zM10 405h187q40 0 75 15t61 41t41.5 61t15.5 75t-15.5 75
t-41.5 61t-61 41.5t-75 15.5h-187v-385zM10 10h187q40 0 75 15t61 41t41.5 61t15.5 75t-15.5 75t-41.5 61t-61 41.5t-75 15.5h-187v-385z" />
    <glyph glyph-name="c" unicode="c" horiz-adv-x="410" 
d="M390 250h10v-47q0 -42 -15.5 -78.5t-42.5 -64t-63 -43.5t-77 -17h-4q-41 1 -77 17t-63 43.5t-42.5 64t-15.5 78.5v394q0 41 15.5 77.5t42.5 64.5t63 44t77 17q42 0 79 -16t64 -43.5t43 -64.5t16 -79v-47h-10v47q0 39 -15 74t-40.5 61t-60 41.5t-73.5 16.5
q-40 0 -74.5 -15.5t-60.5 -42t-41 -61.5t-15 -74v-394q0 -40 15 -75t41 -61.5t60.5 -41.5t74.5 -15q39 0 73.5 15.5t60 42t40.5 61.5t15 74v47z" />
    <glyph glyph-name="d" unicode="d" horiz-adv-x="410" 
d="M0 0v800h202q41 -1 77 -17t63 -44t42.5 -64.5t15.5 -77.5v-394q0 -42 -15.5 -78.5t-42.5 -64t-63 -43.5t-77 -17h-202zM200 10q39 0 74 15t60.5 41.5t40.5 61.5t15 75v394q0 39 -15 73.5t-40.5 61t-60.5 42t-74 16.5h-190v-780h190z" />
    <glyph glyph-name="e" unicode="e" horiz-adv-x="410" 
d="M0 800h400v-10h-390v-385h390v-10h-390v-385h390v-10h-400v800z" />
    <glyph glyph-name="f" unicode="f" horiz-adv-x="410" 
d="M0 800h400v-10h-390v-385h390v-10h-390v-395h-10v800z" />
    <glyph glyph-name="g" unicode="g" horiz-adv-x="410" 
d="M390 395h-190v10h200v-405h-10v139q-10 -30 -28 -55.5t-42.5 -44t-54.5 -29t-63 -10.5h-4q-41 1 -77 17t-63 43.5t-42.5 64t-15.5 78.5v394q0 41 15.5 77.5t42.5 64.5t63 44t77 17q42 0 79 -16t64 -43.5t43 -64.5t16 -79v-47h-10v47q0 39 -15 74t-40.5 61t-60 41.5
t-73.5 16.5q-40 0 -74.5 -15.5t-60.5 -42t-41 -61.5t-15 -74v-394q0 -40 15 -75t41 -61.5t60.5 -41.5t74.5 -15q39 0 73.5 15.5t60 42t40.5 61.5t15 74v192z" />
    <glyph glyph-name="h" unicode="h" horiz-adv-x="410" 
d="M0 0v800h10v-395h380v395h10v-800h-10v395h-380v-395h-10z" />
    <glyph glyph-name="i" unicode="i" horiz-adv-x="410" 
d="M0 800h400v-10h-195v-780h195v-10h-400v10h195v780h-195v10z" />
    <glyph glyph-name="j" unicode="j" horiz-adv-x="410" 
d="M390 790h-189v10h199v-597q0 -42 -15.5 -78.5t-42.5 -64t-63 -43.5t-77 -17h-4q-41 1 -77 16.5t-62.5 42.5t-42.5 63.5t-16 77.5h10q0 -39 15.5 -74t41.5 -60.5t60.5 -40.5t73.5 -15t73.5 15.5t60 42t40.5 61.5t15 74v587z" />
    <glyph glyph-name="k" unicode="k" horiz-adv-x="410" 
d="M0 800h10v-393l375 393h14l-383 -402l384 -398h-15l-375 391v-391h-10v800z" />
    <glyph glyph-name="l" unicode="l" horiz-adv-x="410" 
d="M0 800h10v-790h390v-10h-400v800z" />
    <glyph glyph-name="m" unicode="m" horiz-adv-x="410" 
d="M10 779v-779h-10v800h11l189 -390l189 390h11v-800h-10v779l-190 -391z" />
    <glyph glyph-name="n" unicode="n" horiz-adv-x="410" 
d="M0 800h11l379 -780v780h10v-800h-12l-378 779v-779h-10v800z" />
    <glyph glyph-name="o" unicode="o" horiz-adv-x="410" 
d="M400 203q0 -42 -15.5 -78.5t-42.5 -64t-63 -43.5t-77 -17h-4q-41 1 -77 17t-63 43.5t-42.5 64t-15.5 78.5v394q0 41 15.5 77.5t42.5 64.5t63 44t77 17q42 0 79 -16t64 -43.5t43 -64.5t16 -79v-394zM390 597q0 39 -15 74t-40.5 61t-60 41.5t-73.5 16.5q-40 0 -74.5 -15.5
t-60.5 -42t-41 -61.5t-15 -74v-394q0 -40 15 -75t41 -61.5t60.5 -41.5t74.5 -15q39 0 73.5 15.5t60 42t40.5 61.5t15 74v394z" />
    <glyph glyph-name="p" unicode="p" horiz-adv-x="410" 
d="M0 800h197q42 0 79 -16t64.5 -43.5t43.5 -64.5t16 -79t-16 -79t-43.5 -64t-64.5 -43t-79 -16h-187v-395h-10v800zM10 405h187q40 0 75 15t61 41t41.5 61t15.5 75t-15.5 75t-41.5 61t-61 41.5t-75 15.5h-187v-385z" />
    <glyph glyph-name="q" unicode="q" horiz-adv-x="410" 
d="M198 800q41 0 77 -15.5t63 -41.5t43.5 -62t18.5 -76v-410q-2 -39 -16.5 -72.5t-39.5 -59.5l64 -63h-15l-56 55q-26 -26 -61 -40t-74 -15h-4q-41 1 -77 17t-63 43.5t-42.5 64t-15.5 78.5v394q0 41 15.5 77.5t42.5 64.5t63 44t77 17zM207 200l130 -130q24 26 38.5 60.5
t14.5 72.5v394q0 39 -15 74t-40.5 61t-60 41.5t-73.5 16.5q-40 0 -74.5 -15.5t-60.5 -42t-41 -61.5t-15 -74v-394q0 -40 15 -75t41 -61.5t60.5 -41.5t74.5 -15q37 0 70 14t59 39l-137 137h14z" />
    <glyph glyph-name="r" unicode="r" horiz-adv-x="410" 
d="M0 800h197q42 0 79 -16t64.5 -43.5t43.5 -64.5t16 -79q0 -41 -15 -76.5t-41 -62.5t-61 -44t-75 -19l194 -395h-12l-193 395h-187v-395h-10v800zM10 405h187q40 0 75 15t61 41t41.5 61t15.5 75t-15.5 75t-41.5 61t-61 41.5t-75 15.5h-187v-385z" />
    <glyph glyph-name="s" unicode="s" horiz-adv-x="410" 
d="M0 598q0 42 15.5 78.5t43 64t64 43.5t78.5 16h1h1q41 -1 77 -17.5t62.5 -44t42 -64t15.5 -77.5v-3h-10v3q0 39 -15 73.5t-40.5 61t-59.5 42t-73 16.5h-1h-3q-39 -1 -73.5 -16.5t-60 -41.5t-40 -60.5t-14.5 -73.5q0 -40 15 -75t40.5 -61t60.5 -41.5t74 -15.5h1h1h-1
q41 -1 77.5 -17t63.5 -43t42.5 -63.5t15.5 -78.5q0 -41 -15 -77t-41.5 -63.5t-62 -44.5t-75.5 -18h-4h-4q-41 1 -77 17t-63 43.5t-42.5 64t-15.5 78.5v3h10v-3q0 -39 14.5 -74t40 -61t60 -41.5t73.5 -16.5h4q39 1 73 16.5t59.5 41.5t40.5 61t15 74t-15 73.5t-40.5 60.5
t-59.5 41.5t-73 16.5q-42 0 -79 16t-64 43.5t-43 64.5t-16 79z" />
    <glyph glyph-name="t" unicode="t" horiz-adv-x="410" 
d="M0 800h400v-10h-195v-790h-10v790h-195v10z" />
    <glyph glyph-name="u" unicode="u" horiz-adv-x="410" 
d="M390 800h10v-597q0 -42 -15.5 -78.5t-42.5 -64t-63 -43.5t-77 -17h-4q-41 1 -77 17t-63 43.5t-42.5 64t-15.5 78.5v597h10v-597q0 -40 15 -75t41 -61.5t61 -41.5t74 -15t73.5 15.5t60 42t40.5 61.5t15 74v597z" />
    <glyph glyph-name="v" unicode="v" horiz-adv-x="410" 
d="M389 800h11l-195 -800h-10l-195 800h11l189 -775z" />
    <glyph glyph-name="w" unicode="w" horiz-adv-x="410" 
d="M390 21v779h10v-800h-11l-189 390l-189 -390h-11v800h10v-779l190 391z" />
    <glyph glyph-name="x" unicode="x" horiz-adv-x="410" 
d="M0 0l194 399l-194 401h11l189 -388l189 388h11l-194 -401l194 -399h-12l-188 387l-188 -387h-12z" />
    <glyph glyph-name="y" unicode="y" horiz-adv-x="410" 
d="M195 397l-195 403h11l189 -388l189 388h11l-195 -403v-397h-10v397z" />
    <glyph glyph-name="z" unicode="z" horiz-adv-x="410" 
d="M1 800h399l-383 -790h383v-10h-400l384 790h-383v10z" />
    <glyph glyph-name="braceleft" unicode="{" horiz-adv-x="110" 
d="M30 702q0 35 19.5 61.5t50.5 36.5v-11q-26 -10 -43 -33.5t-17 -53.5v-229q0 -46 -28 -73q14 -14 21 -33t7 -40v-229q0 -30 17 -54t43 -34v-10q-31 9 -50.5 36t-19.5 62v229q0 41 -30 68v10q30 25 30 68v229z" />
    <glyph glyph-name="bar" unicode="|" horiz-adv-x="20" 
d="M0 800h10v-800h-10v800z" />
    <glyph glyph-name="braceright" unicode="}" horiz-adv-x="110" 
d="M70 473q0 -43 30 -68v-10q-30 -27 -30 -68v-229q0 -35 -19.5 -62t-50.5 -36v10q26 10 43 34t17 54v229q0 21 7 40t21 33q-28 27 -28 73v229q0 30 -17 53.5t-43 33.5v11q31 -10 50.5 -36.5t19.5 -61.5v-229z" />
    <glyph glyph-name="asciitilde" unicode="~" horiz-adv-x="233" 
d="M126 896q-32 -11 -64.5 -10t-61.5 12v10q29 -11 59.5 -12t62.5 9q26 7 51.5 7t49.5 -5v-10q-48 12 -97 -1z" />
    <glyph glyph-name="exclamdown" unicode="&#xa1;" horiz-adv-x="20" 
d="M0 600.012v-599.963h10v599.963h-10zM0 800v-99.9941h10v99.9941h-10z" />
    <glyph glyph-name="cent" unicode="&#xa2;" horiz-adv-x="386" 
d="M190 195q-40 2 -74.5 18.5t-60 43.5t-40.5 63t-15 77q0 40 15 76t40.5 63.5t60 44.5t74.5 19v100h10v-100q55 0 101 -27.5t72 -72.5h-12q-25 41 -67.5 65.5t-93.5 24.5v-385q53 0 96.5 26t68.5 69h11q-26 -48 -72.5 -76.5t-103.5 -28.5v-95h-10v95zM10 397q0 -39 14 -73
t38 -60t57 -41.5t71 -17.5v385q-38 -2 -71 -18t-57 -42t-38 -60t-14 -73z" />
    <glyph glyph-name="sterling" unicode="&#xa3;" horiz-adv-x="410" 
d="M0 597q0 42 16 79t43 64.5t64 43.5t79 16q41 -1 77 -17t63 -43.5t42.5 -64t15.5 -78.5v-3h-10v3q0 40 -15 75t-41 61t-61 41.5t-75 15.5q-39 -1 -73.5 -16.5t-60 -41.5t-40 -61t-14.5 -74v-189h390v-10h-390v-388h390v-10h-400v597v0z" />
    <glyph glyph-name="yen" unicode="&#xa5;" 
d="M205 400h187l-392 393v7h7l393 -392l393 392h7v-7l-393 -393h198v-10h-200v-190h200v-10h-200v-190h-10v190h-190v10h190v190h-190v10z" />
    <glyph glyph-name="dieresis" unicode="&#xa8;" horiz-adv-x="160" 
d="M0 905h50v-10h-50v10zM100 905h50v-10h-50v10z" />
    <glyph glyph-name="copyright" unicode="&#xa9;" horiz-adv-x="610" 
d="M0 400q0 62 23.5 117t64 95.5t95.5 64t117 23.5t117 -23.5t95.5 -64t64 -95.5t23.5 -117t-23.5 -117t-64 -95.5t-95.5 -64t-117 -23.5t-117 23.5t-95.5 64t-64 95.5t-23.5 117zM10 400q0 -60 23 -113t62 -92t92 -62t113 -23t113 23t92 62t62 92t23 113t-23 113t-62 92
t-92 62t-113 23t-113 -23t-92 -62t-62 -92t-23 -113zM110 397q0 -40 15 -75t40.5 -61t60.5 -41t74 -15q53 0 96.5 26t68.5 69h11q-26 -48 -72.5 -76.5t-103.5 -28.5q-41 0 -77.5 16t-63.5 43t-43 64t-16 79t16 79t43 64.5t63.5 43.5t77.5 16q55 0 101 -27.5t72 -72.5h-12
q-25 41 -67.5 65.5t-93.5 24.5q-39 0 -74 -15t-60.5 -41.5t-40.5 -61.5t-15 -75z" />
    <glyph glyph-name="ordfeminine" unicode="&#xaa;" horiz-adv-x="215" 
d="M98 800h10l97 -400h-11l-47 195h-88l-48 -195h-11l48 195l2 10zM61 605h83l-41 170z" />
    <glyph glyph-name="guillemotleft" unicode="&#xab;" horiz-adv-x="165" 
d="M110 300l45 -200h-10l-45 200l45 200h10zM10 300l45 -200h-10l-45 200l45 200h10z" />
    <glyph glyph-name="registered" unicode="&#xae;" horiz-adv-x="610" 
d="M350 600q21 0 39 -8t31.5 -21.5t21.5 -32.5t8 -40t-7.5 -39.5t-20.5 -32.5t-31 -22t-38 -9l96 -195h-12l-95 195h-182v-195h-10v400h200zM350 405q19 0 35.5 7.5t28.5 20t19 29.5t7 36t-7 36t-19 29.5t-28.5 19.5t-35.5 7h-190v-185h190zM0 400q0 62 23.5 117t64 95.5
t95.5 64t117 23.5t117 -23.5t95.5 -64t64 -95.5t23.5 -117t-23.5 -117t-64 -95.5t-95.5 -64t-117 -23.5t-117 23.5t-95.5 64t-64 95.5t-23.5 117zM10 400q0 -60 23 -113t62 -92t92 -62t113 -23t113 23t92 62t62 92t23 113t-23 113t-62 92t-92 62t-113 23t-113 -23t-92 -62
t-62 -92t-23 -113z" />
    <glyph glyph-name="degree" unicode="&#xb0;" horiz-adv-x="210" 
d="M0 702q0 21 8 40t21.5 33t31.5 22t39 8t39 -8t31.5 -22t21.5 -33t8 -40t-8 -40t-21.5 -32.5t-31.5 -21.5t-39 -8t-39 8t-31.5 21.5t-21.5 32.5t-8 40zM10 702q0 -19 7 -36t19 -29.5t28.5 -19.5t35.5 -7t35.5 7t28.5 19.5t19 29.5t7 36t-7 36t-19 29.5t-28.5 20t-35.5 7.5
t-35.5 -7.5t-28.5 -20t-19 -29.5t-7 -36z" />
    <glyph glyph-name="plusminus" unicode="&#xb1;" horiz-adv-x="410" 
d="M0 405h195v95h10v-95h195v-10h-195v-95h-10v95h-195v10zM0 205h400v-10h-400v10z" />
    <glyph glyph-name="twosuperior" unicode="&#xb2;" horiz-adv-x="210" 
d="M0 699q0 21 8 39.5t21.5 32t31.5 21.5t39 8h4q40 -2 68 -31.5t28 -71.5v-9q-3 -31 -22 -55l-160 -223h182v-10h-200v5l170 236q8 11 14 25.5t6 30.5q0 19 -7 36t-19 29.5t-28.5 20t-35.5 7.5q-38 0 -63.5 -26.5t-26.5 -64.5h-10v0z" />
    <glyph glyph-name="threesuperior" unicode="&#xb3;" horiz-adv-x="210" 
d="M10 501q1 -38 26.5 -64.5t63.5 -26.5q19 0 35.5 7.5t28.5 20t19 29.5t7 36t-7 36t-19 29.5t-28.5 19.5t-35.5 7v11q19 0 35.5 7t28.5 19.5t19 29.5t7 36t-7 36t-19 29.5t-28.5 20t-35.5 7.5q-38 0 -63.5 -26.5t-26.5 -64.5h-10q0 21 8 39.5t21.5 32t31.5 21.5t39 8t39 -8
t31.5 -22t21.5 -33t8 -40v-5q-2 -34 -21.5 -58.5t-49.5 -34.5q30 -9 49.5 -34t21.5 -58v-5q0 -21 -8 -40t-21.5 -33t-31.5 -22t-39 -8t-39 8t-31.5 21.5t-21.5 32t-8 39.5h10z" />
    <glyph glyph-name="acute" unicode="&#xb4;" horiz-adv-x="210" 
d="M200 890l-200 -20v10l200 20v-10z" />
    <glyph glyph-name="cedilla" unicode="&#xb8;" horiz-adv-x="210" 
d="M0 -95h200v-10h-200v10z" />
    <glyph glyph-name="onesuperior" unicode="&#xb9;" horiz-adv-x="210" 
d="M0 800h105v-390h95v-10h-200v10h95v380h-95v10z" />
    <glyph glyph-name="ordmasculine" unicode="&#xba;" horiz-adv-x="210" 
d="M200 498q0 -21 -8 -40t-21.5 -33t-31.5 -22t-39 -8t-39 8t-31.5 22t-21.5 33t-8 40v199q0 21 8 40t21.5 33t31.5 22t39 8t39 -8t31.5 -22t21.5 -33t8 -40v-199zM100 790q-19 0 -35.5 -7.5t-28.5 -20t-19 -29.5t-7 -36v-199q0 -19 7 -36t19 -29.5t28.5 -20t35.5 -7.5
t35.5 7.5t28.5 20t19 29.5t7 36v199q0 19 -7 36t-19 29.5t-28.5 20t-35.5 7.5z" />
    <glyph glyph-name="guillemotright" unicode="&#xbb;" horiz-adv-x="165" 
d="M0 500h10l45 -200l-45 -200h-10l45 200zM100 500h10l45 -200l-45 -200h-10l45 200z" />
    <glyph glyph-name="onequarter" unicode="&#xbc;" horiz-adv-x="510" 
d="M438 408v-303h62v-10h-62v-95h-10v95h-149v10l149 303h10zM428 105v282l-139 -282h139zM0 800h105v-390h95v-10h-200v10h95v380h-95v10zM292 800h10l-90 -800h-10z" />
    <glyph glyph-name="onehalf" unicode="&#xbd;" horiz-adv-x="510" 
d="M0 800h105v-390h95v-10h-200v10h95v380h-95v10zM300 299q0 21 8 39.5t21.5 32t31.5 21.5t39 8h4q40 -2 68 -31.5t28 -71.5v-9q-3 -31 -22 -55l-162 -223h184v-10h-200v5l170 236q8 11 14 25.5t6 30.5q0 19 -7 36t-19 29.5t-28.5 20t-35.5 7.5q-38 0 -63.5 -26.5
t-26.5 -64.5h-10zM292 800h10l-90 -800h-10z" />
    <glyph glyph-name="threequarters" unicode="&#xbe;" horiz-adv-x="480" 
d="M10 501q1 -38 26.5 -64.5t63.5 -26.5q19 0 35.5 7.5t28.5 20t19 29.5t7 36t-7 36t-19 29.5t-28.5 19.5t-35.5 7v11q19 0 35.5 7t28.5 19.5t19 29.5t7 36t-7 36t-19 29.5t-28.5 20t-35.5 7.5q-38 0 -63.5 -26.5t-26.5 -64.5h-10q0 21 8 39.5t21.5 32t31.5 21.5t39 8t39 -8
t31.5 -22t21.5 -33t8 -40v-5q-2 -34 -21.5 -58.5t-49.5 -34.5q30 -9 49.5 -34t21.5 -58v-5q0 -21 -8 -40t-21.5 -33t-31.5 -22t-39 -8t-39 8t-31.5 21.5t-21.5 32t-8 39.5h10zM408 408v-303h62v-10h-62v-95h-10v95h-149v10l149 303h10zM398 105v282l-139 -282h139zM290 800
h10l-90 -800h-10z" />
    <glyph glyph-name="questiondown" unicode="&#xbf;" 
d="M405.024 800v-99.9941h-10v99.9941h10zM800 203.036q0 -41.9971 -15.499 -78.4951t-42.4971 -63.9961q-26.999 -27.498 -63.4961 -43.9971q-36.498 -16.499 -78.4961 -16.499h-399.975q-40.998 0 -77.4961 15.999q-36.4971 15.999 -63.4961 43.4971
q-26.998 27.499 -42.9971 64.4961q-15.999 36.998 -15.999 78.9951q0 41.998 15.999 78.9951q15.999 36.998 42.9971 63.9961q26.999 26.999 63.4961 42.998q36.498 15.999 77.4961 15.999h4.99902q38.998 0 73.9961 15.499q34.9971 15.499 60.4961 41.9971
q25.498 26.498 40.4971 61.4961t14.999 73.9961h10q0 -41.998 -15.499 -78.4951q-15.499 -36.498 -42.498 -63.9961q-26.998 -27.499 -63.4961 -43.998q-36.4971 -16.499 -78.4951 -16.499h-4.99902q-38.998 0 -73.9961 -14.999t-60.4961 -40.9971
q-25.498 -25.999 -40.498 -60.9961q-14.999 -34.998 -14.999 -74.9961q0 -39.9971 14.999 -74.9951q15 -34.998 40.498 -61.4961t60.4961 -41.498q34.998 -14.999 73.9961 -14.999h399.975q38.998 0 73.9961 15.499t60.4961 41.998q25.498 26.498 40.498 61.4961
q14.999 34.998 14.999 73.9951v3h9.99902v-3z" />
    <glyph glyph-name="Agrave" unicode="&#xc0;" 
d="M395 800h10l395 -800h-12l-195 395h-386l-195 -395h-12zM212 405h376l-188 382zM305 901l200 -20v-10l-200 20v10z" />
    <glyph glyph-name="Aacute" unicode="&#xc1;" 
d="M395 800h10l395 -800h-12l-195 395h-386l-195 -395h-12zM212 405h376l-188 382zM505 891l-200 -20v10l200 20v-10z" />
    <glyph glyph-name="Acircumflex" unicode="&#xc2;" 
d="M395 800h10l395 -800h-12l-195 395h-386l-195 -395h-12zM212 405h376l-188 382zM505 881v-10l-100 20l-100 -20v10l100 20z" />
    <glyph glyph-name="Atilde" unicode="&#xc3;" 
d="M395 800h10l395 -800h-12l-195 395h-386l-195 -395h-12zM212 405h376l-188 382zM419 897q-32 -11 -64.5 -10t-61.5 12v10q29 -11 59.5 -12t62.5 9q26 7 51.5 7t49.5 -5v-10q-48 12 -97 -1z" />
    <glyph glyph-name="Adieresis" unicode="&#xc4;" 
d="M395 800h10l395 -800h-12l-195 395h-386l-195 -395h-12zM212 405h376l-188 382zM330 906h50v-10h-50v10zM430 906h50v-10h-50v10z" />
    <glyph glyph-name="Aring" unicode="&#xc5;" 
d="M305 899q0 21 8 40t21.5 33t31.5 22t39 8t39 -8t31.5 -22t21.5 -33t8 -40t-7.5 -39.5t-21 -32.5t-31.5 -22t-39 -8l394 -797h-12l-195 395h-386l-195 -395h-12l393 797q-37 5 -62.5 33.5t-25.5 68.5zM212 405h376l-188 382zM315 899q0 -19 7 -36t19 -29.5t28.5 -19.5
t35.5 -7t35.5 7t28.5 19.5t19 29.5t7 36t-7 36t-19 29.5t-28.5 20t-35.5 7.5t-35.5 -7.5t-28.5 -20t-19 -29.5t-7 -36z" />
    <glyph glyph-name="AE" unicode="&#xc6;" 
d="M395 800h405v-10h-390v-385h390v-10h-390v-385h390v-10h-400v395h-193l-195 -395h-12zM400 405v382l-188 -382h188z" />
    <glyph glyph-name="Ccedilla" unicode="&#xc7;" 
d="M10 400q0 -81 30.5 -152t83.5 -124t124 -83.5t152 -30.5q60 0 115.5 17.5t102 49.5t83 75.5t58.5 96.5h11q-22 -55 -59 -100.5t-85.5 -78.5t-105.5 -51.5t-120 -18.5q-83 0 -156 31.5t-127 85.5t-85.5 127t-31.5 156t31.5 156t85.5 127t127 85.5t156 31.5q63 0 120 -18.5
t105.5 -51.5t85.5 -78.5t59 -100.5h-11q-22 52 -58.5 96t-83 76t-102 49.5t-115.5 17.5q-81 0 -152 -30.5t-124 -83.5t-83.5 -124t-30.5 -152zM290 -95h200v-10h-200v10z" />
    <glyph glyph-name="Egrave" unicode="&#xc8;" 
d="M0 800h800v-10h-790v-385h790v-10h-790v-385h790v-10h-800v800zM305 901l200 -20v-10l-200 20v10z" />
    <glyph glyph-name="Eacute" unicode="&#xc9;" 
d="M0 800h800v-10h-790v-385h790v-10h-790v-385h790v-10h-800v800zM505 891l-200 -20v10l200 20v-10z" />
    <glyph glyph-name="Ecircumflex" unicode="&#xca;" 
d="M0 800h800v-10h-790v-385h790v-10h-790v-385h790v-10h-800v800zM505 881v-10l-100 20l-100 -20v10l100 20z" />
    <glyph glyph-name="Edieresis" unicode="&#xcb;" 
d="M0 800h800v-10h-790v-385h790v-10h-790v-385h790v-10h-800v800zM330 906h50v-10h-50v10zM430 906h50v-10h-50v10z" />
    <glyph glyph-name="Igrave" unicode="&#xcc;" 
d="M0 800h800v-10h-395v-780h395v-10h-800v10h395v780h-395v10zM305 901l200 -20v-10l-200 20v10z" />
    <glyph glyph-name="Iacute" unicode="&#xcd;" 
d="M0 800h800v-10h-395v-780h395v-10h-800v10h395v780h-395v10zM505 891l-200 -20v10l200 20v-10z" />
    <glyph glyph-name="Icircumflex" unicode="&#xce;" 
d="M0 800h800v-10h-395v-780h395v-10h-800v10h395v780h-395v10zM505 881v-10l-100 20l-100 -20v10l100 20z" />
    <glyph glyph-name="Idieresis" unicode="&#xcf;" 
d="M0 800h800v-10h-395v-780h395v-10h-800v10h395v780h-395v10zM330 906h50v-10h-50v10zM430 906h50v-10h-50v10z" />
    <glyph glyph-name="Eth" unicode="&#xd0;" horiz-adv-x="805" 
d="M0 401h95v399h300q83 0 156 -31.5t127 -85.5t85.5 -127t31.5 -156t-31.5 -156t-85.5 -127t-127 -85.5t-156 -31.5h-300v391h-95v10zM105 401h95v-10h-95v-381h290q81 0 152 30.5t124 83.5t83.5 124t30.5 152t-30.5 152t-83.5 124t-124 83.5t-152 30.5h-290v-389z" />
    <glyph glyph-name="Ntilde" unicode="&#xd1;" 
d="M10 786v-786h-10v800h10l780 -786v786h10v-800h-10zM419 897q-32 -11 -64.5 -10t-61.5 12v10q29 -11 59.5 -12t62.5 9q26 7 51.5 7t49.5 -5v-10q-48 12 -97 -1z" />
    <glyph glyph-name="Ograve" unicode="&#xd2;" 
d="M0 400q0 83 31.5 156t85.5 127t127 85.5t156 31.5t156 -31.5t127 -85.5t85.5 -127t31.5 -156t-31.5 -156t-85.5 -127t-127 -85.5t-156 -31.5t-156 31.5t-127 85.5t-85.5 127t-31.5 156zM10 400q0 -81 30.5 -152t83.5 -124t124 -83.5t152 -30.5t152 30.5t124 83.5
t83.5 124t30.5 152t-30.5 152t-83.5 124t-124 83.5t-152 30.5t-152 -30.5t-124 -83.5t-83.5 -124t-30.5 -152zM305 901l200 -20v-10l-200 20v10z" />
    <glyph glyph-name="Oacute" unicode="&#xd3;" 
d="M0 400q0 83 31.5 156t85.5 127t127 85.5t156 31.5t156 -31.5t127 -85.5t85.5 -127t31.5 -156t-31.5 -156t-85.5 -127t-127 -85.5t-156 -31.5t-156 31.5t-127 85.5t-85.5 127t-31.5 156zM10 400q0 -81 30.5 -152t83.5 -124t124 -83.5t152 -30.5t152 30.5t124 83.5
t83.5 124t30.5 152t-30.5 152t-83.5 124t-124 83.5t-152 30.5t-152 -30.5t-124 -83.5t-83.5 -124t-30.5 -152zM505 891l-200 -20v10l200 20v-10z" />
    <glyph glyph-name="Ocircumflex" unicode="&#xd4;" 
d="M0 400q0 83 31.5 156t85.5 127t127 85.5t156 31.5t156 -31.5t127 -85.5t85.5 -127t31.5 -156t-31.5 -156t-85.5 -127t-127 -85.5t-156 -31.5t-156 31.5t-127 85.5t-85.5 127t-31.5 156zM10 400q0 -81 30.5 -152t83.5 -124t124 -83.5t152 -30.5t152 30.5t124 83.5
t83.5 124t30.5 152t-30.5 152t-83.5 124t-124 83.5t-152 30.5t-152 -30.5t-124 -83.5t-83.5 -124t-30.5 -152zM505 881v-10l-100 20l-100 -20v10l100 20z" />
    <glyph glyph-name="Otilde" unicode="&#xd5;" 
d="M0 400q0 83 31.5 156t85.5 127t127 85.5t156 31.5t156 -31.5t127 -85.5t85.5 -127t31.5 -156t-31.5 -156t-85.5 -127t-127 -85.5t-156 -31.5t-156 31.5t-127 85.5t-85.5 127t-31.5 156zM10 400q0 -81 30.5 -152t83.5 -124t124 -83.5t152 -30.5t152 30.5t124 83.5
t83.5 124t30.5 152t-30.5 152t-83.5 124t-124 83.5t-152 30.5t-152 -30.5t-124 -83.5t-83.5 -124t-30.5 -152zM419 897q-32 -11 -64.5 -10t-61.5 12v10q29 -11 59.5 -12t62.5 9q26 7 51.5 7t49.5 -5v-10q-48 12 -97 -1z" />
    <glyph glyph-name="Odieresis" unicode="&#xd6;" 
d="M0 400q0 83 31.5 156t85.5 127t127 85.5t156 31.5t156 -31.5t127 -85.5t85.5 -127t31.5 -156t-31.5 -156t-85.5 -127t-127 -85.5t-156 -31.5t-156 31.5t-127 85.5t-85.5 127t-31.5 156zM10 400q0 -81 30.5 -152t83.5 -124t124 -83.5t152 -30.5t152 30.5t124 83.5
t83.5 124t30.5 152t-30.5 152t-83.5 124t-124 83.5t-152 30.5t-152 -30.5t-124 -83.5t-83.5 -124t-30.5 -152zM330 906h50v-10h-50v10zM430 906h50v-10h-50v10z" />
    <glyph glyph-name="multiply" unicode="&#xd7;" horiz-adv-x="302" 
d="M7 544l139 -137l137 139l7 -7l-137 -139l139 -137l-7 -7l-139 137l-137 -139l-7 7l137 139l-139 137z" />
    <glyph glyph-name="Oslash" unicode="&#xd8;" 
d="M0 0v8l793 792h7v-7l-793 -793h-7zM0 400q0 83 31.5 156t85.5 127t127 85.5t156 31.5t156 -31.5t127 -85.5t85.5 -127t31.5 -156t-31.5 -156t-85.5 -127t-127 -85.5t-156 -31.5t-156 31.5t-127 85.5t-85.5 127t-31.5 156zM10 400q0 -81 30.5 -152t83.5 -124t124 -83.5
t152 -30.5t152 30.5t124 83.5t83.5 124t30.5 152t-30.5 152t-83.5 124t-124 83.5t-152 30.5t-152 -30.5t-124 -83.5t-83.5 -124t-30.5 -152z" />
    <glyph glyph-name="Ugrave" unicode="&#xd9;" 
d="M800 400q0 -83 -31.5 -156t-85.5 -127t-127 -85.5t-156 -31.5t-155.5 31t-127 85t-86 126.5t-31.5 155.5v402h10v-400q0 -81 30.5 -152t83.5 -124t124 -83.5t152 -30.5q80 0 151 30.5t124 83t84 123.5t31 151v402h10v-400zM305 901l200 -20v-10l-200 20v10z" />
    <glyph glyph-name="Uacute" unicode="&#xda;" 
d="M800 400q0 -83 -31.5 -156t-85.5 -127t-127 -85.5t-156 -31.5t-155.5 31t-127 85t-86 126.5t-31.5 155.5v402h10v-400q0 -81 30.5 -152t83.5 -124t124 -83.5t152 -30.5q80 0 151 30.5t124 83t84 123.5t31 151v402h10v-400zM505 891l-200 -20v10l200 20v-10z" />
    <glyph glyph-name="Ucircumflex" unicode="&#xdb;" 
d="M800 400q0 -83 -31.5 -156t-85.5 -127t-127 -85.5t-156 -31.5t-155.5 31t-127 85t-86 126.5t-31.5 155.5v402h10v-400q0 -81 30.5 -152t83.5 -124t124 -83.5t152 -30.5q80 0 151 30.5t124 83t84 123.5t31 151v402h10v-400zM505 881v-10l-100 20l-100 -20v10l100 20z" />
    <glyph glyph-name="Udieresis" unicode="&#xdc;" 
d="M800 400q0 -83 -31.5 -156t-85.5 -127t-127 -85.5t-156 -31.5t-155.5 31t-127 85t-86 126.5t-31.5 155.5v402h10v-400q0 -81 30.5 -152t83.5 -124t124 -83.5t152 -30.5q80 0 151 30.5t124 83t84 123.5t31 151v402h10v-400zM330 906h50v-10h-50v10zM430 906h50v-10h-50v10
z" />
    <glyph glyph-name="Yacute" unicode="&#xdd;" 
d="M395 397l-3 3l-399 400h14l393 -392l393 392h14l-402 -402v-398h-10v397zM505 891l-200 -20v10l200 20v-10z" />
    <glyph glyph-name="germandbls" unicode="&#xdf;" 
d="M400 395v10h200q39 0 74 15t60.5 41t40.5 61t15 75t-15 75t-40.5 61.5t-60.5 41.5t-74 15h-398q-40 0 -75 -15.5t-61 -41.5t-41 -61t-15 -75v-597h-10v597q0 42 15.5 78.5t42.5 64t63.5 44t78.5 16.5h400q41 0 77.5 -16t63.5 -43.5t43 -64.5t16 -79q0 -36 -12 -68.5
t-33 -58.5t-49.5 -44.5t-61.5 -25.5q33 -8 61.5 -26.5t49.5 -44.5t33 -58.5t12 -68.5q0 -42 -16 -79t-43 -64t-63.5 -43t-77.5 -16h-200v10h200q39 0 74 15t60.5 41t40.5 61t15 75q0 39 -14 73.5t-39 60.5t-58 41.5t-71 17.5h-208z" />
    <glyph glyph-name="agrave" unicode="&#xe0;" horiz-adv-x="410" 
d="M292 395h-185l-96 -395h-11l195 800h10l195 -800h-11zM110 405h180l-90 370zM105 900l200 -20v-10l-200 20v10z" />
    <glyph glyph-name="aacute" unicode="&#xe1;" horiz-adv-x="410" 
d="M292 395h-185l-96 -395h-11l195 800h10l195 -800h-11zM110 405h180l-90 370zM305 890l-200 -20v10l200 20v-10z" />
    <glyph glyph-name="acircumflex" unicode="&#xe2;" horiz-adv-x="410" 
d="M292 395h-185l-96 -395h-11l195 800h10l195 -800h-11zM110 405h180l-90 370zM305 880v-10l-100 20l-100 -20v10l100 20z" />
    <glyph glyph-name="atilde" unicode="&#xe3;" horiz-adv-x="410" 
d="M292 395h-185l-96 -395h-11l195 800h10l195 -800h-11zM110 405h180l-90 370zM219 896q-32 -11 -64.5 -10t-61.5 12v10q29 -11 59.5 -12t62.5 9q26 7 51.5 7t49.5 -5v-10q-48 12 -97 -1z" />
    <glyph glyph-name="adieresis" unicode="&#xe4;" horiz-adv-x="410" 
d="M292 395h-185l-96 -395h-11l195 800h10l195 -800h-11zM110 405h180l-90 370zM130 905h50v-10h-50v10zM230 905h50v-10h-50v10z" />
    <glyph glyph-name="aring" unicode="&#xe5;" horiz-adv-x="410" 
d="M105 898q0 21 8 40t21.5 33t31.5 22t39 8t39 -8t31.5 -22t21.5 -33t8 -40t-8 -40t-21.5 -32.5t-31.5 -21.5t-38 -8l194 -796h-11l-97 395h-185l-96 -395h-11l194 796q-38 5 -63.5 33.5t-25.5 68.5zM110 405h180l-90 370zM115 898q0 -19 7 -36t19 -29.5t28.5 -19.5
t35.5 -7t35.5 7t28.5 19.5t19 29.5t7 36t-7 36t-19 29.5t-28.5 20t-35.5 7.5t-35.5 -7.5t-28.5 -20t-19 -29.5t-7 -36z" />
    <glyph glyph-name="ae" unicode="&#xe6;" horiz-adv-x="410" 
d="M200 395h-93l-96 -395h-11l195 800h205v-10h-190v-385h190v-10h-190v-385h190v-10h-200v395zM110 405h90v370z" />
    <glyph glyph-name="ccedilla" unicode="&#xe7;" horiz-adv-x="410" 
d="M390 250h10v-47q0 -42 -15.5 -78.5t-42.5 -64t-63 -43.5t-77 -17h-4q-41 1 -77 17t-63 43.5t-42.5 64t-15.5 78.5v394q0 41 15.5 77.5t42.5 64.5t63 44t77 17q42 0 79 -16t64 -43.5t43 -64.5t16 -79v-47h-10v47q0 39 -15 74t-40.5 61t-60 41.5t-73.5 16.5
q-40 0 -74.5 -15.5t-60.5 -42t-41 -61.5t-15 -74v-394q0 -40 15 -75t41 -61.5t60.5 -41.5t74.5 -15q39 0 73.5 15.5t60 42t40.5 61.5t15 74v47zM105 -95h200v-10h-200v10z" />
    <glyph glyph-name="egrave" unicode="&#xe8;" horiz-adv-x="410" 
d="M0 800h400v-10h-390v-385h390v-10h-390v-385h390v-10h-400v800zM105 900l200 -20v-10l-200 20v10z" />
    <glyph glyph-name="eacute" unicode="&#xe9;" horiz-adv-x="410" 
d="M0 800h400v-10h-390v-385h390v-10h-390v-385h390v-10h-400v800zM305 890l-200 -20v10l200 20v-10z" />
    <glyph glyph-name="ecircumflex" unicode="&#xea;" horiz-adv-x="410" 
d="M0 800h400v-10h-390v-385h390v-10h-390v-385h390v-10h-400v800zM305 880v-10l-100 20l-100 -20v10l100 20z" />
    <glyph glyph-name="edieresis" unicode="&#xeb;" horiz-adv-x="410" 
d="M0 800h400v-10h-390v-385h390v-10h-390v-385h390v-10h-400v800zM130 905h50v-10h-50v10zM230 905h50v-10h-50v10z" />
    <glyph glyph-name="igrave" unicode="&#xec;" horiz-adv-x="410" 
d="M0 800h400v-10h-195v-780h195v-10h-400v10h195v780h-195v10zM105 900l200 -20v-10l-200 20v10z" />
    <glyph glyph-name="iacute" unicode="&#xed;" horiz-adv-x="410" 
d="M0 800h400v-10h-195v-780h195v-10h-400v10h195v780h-195v10zM305 890l-200 -20v10l200 20v-10z" />
    <glyph glyph-name="icircumflex" unicode="&#xee;" horiz-adv-x="410" 
d="M0 800h400v-10h-195v-780h195v-10h-400v10h195v780h-195v10zM305 880v-10l-100 20l-100 -20v10l100 20z" />
    <glyph glyph-name="idieresis" unicode="&#xef;" horiz-adv-x="410" 
d="M0 800h400v-10h-195v-780h195v-10h-400v10h195v780h-195v10zM130 905h50v-10h-50v10zM230 905h50v-10h-50v10z" />
    <glyph glyph-name="eth" unicode="&#xf0;" horiz-adv-x="415" 
d="M0 203q0 42 16 79t43 64t64 43t79 16q33 0 63 -10t55 -28l-172 232h-93v10h86l-141 191h13l141 -191h101v-10h-94l199 -269q21 -26 33 -58.5t12 -68.5q0 -42 -16 -79t-43.5 -64.5t-64.5 -43.5t-79 -16t-79 16t-64 43.5t-43 64.5t-16 79zM10 203q0 -40 15 -75t41 -61.5
t61 -41.5t75 -15t75 15t61 41.5t41.5 61.5t15.5 75t-15.5 75t-41.5 61t-61 41t-75 15t-75 -15t-61 -41t-41 -61t-15 -75z" />
    <glyph glyph-name="ntilde" unicode="&#xf1;" horiz-adv-x="410" 
d="M0 800h11l379 -780v780h10v-800h-12l-378 779v-779h-10v800zM219 896q-32 -11 -64.5 -10t-61.5 12v10q29 -11 59.5 -12t62.5 9q26 7 51.5 7t49.5 -5v-10q-48 12 -97 -1z" />
    <glyph glyph-name="ograve" unicode="&#xf2;" horiz-adv-x="410" 
d="M400 203q0 -42 -15.5 -78.5t-42.5 -64t-63 -43.5t-77 -17h-4q-41 1 -77 17t-63 43.5t-42.5 64t-15.5 78.5v394q0 41 15.5 77.5t42.5 64.5t63 44t77 17q42 0 79 -16t64 -43.5t43 -64.5t16 -79v-394zM390 597q0 39 -15 74t-40.5 61t-60 41.5t-73.5 16.5q-40 0 -74.5 -15.5
t-60.5 -42t-41 -61.5t-15 -74v-394q0 -40 15 -75t41 -61.5t60.5 -41.5t74.5 -15q39 0 73.5 15.5t60 42t40.5 61.5t15 74v394zM105 900l200 -20v-10l-200 20v10z" />
    <glyph glyph-name="oacute" unicode="&#xf3;" horiz-adv-x="410" 
d="M400 203q0 -42 -15.5 -78.5t-42.5 -64t-63 -43.5t-77 -17h-4q-41 1 -77 17t-63 43.5t-42.5 64t-15.5 78.5v394q0 41 15.5 77.5t42.5 64.5t63 44t77 17q42 0 79 -16t64 -43.5t43 -64.5t16 -79v-394zM390 597q0 39 -15 74t-40.5 61t-60 41.5t-73.5 16.5q-40 0 -74.5 -15.5
t-60.5 -42t-41 -61.5t-15 -74v-394q0 -40 15 -75t41 -61.5t60.5 -41.5t74.5 -15q39 0 73.5 15.5t60 42t40.5 61.5t15 74v394zM305 890l-200 -20v10l200 20v-10z" />
    <glyph glyph-name="ocircumflex" unicode="&#xf4;" horiz-adv-x="410" 
d="M400 203q0 -42 -15.5 -78.5t-42.5 -64t-63 -43.5t-77 -17h-4q-41 1 -77 17t-63 43.5t-42.5 64t-15.5 78.5v394q0 41 15.5 77.5t42.5 64.5t63 44t77 17q42 0 79 -16t64 -43.5t43 -64.5t16 -79v-394zM390 597q0 39 -15 74t-40.5 61t-60 41.5t-73.5 16.5q-40 0 -74.5 -15.5
t-60.5 -42t-41 -61.5t-15 -74v-394q0 -40 15 -75t41 -61.5t60.5 -41.5t74.5 -15q39 0 73.5 15.5t60 42t40.5 61.5t15 74v394zM305 880v-10l-100 20l-100 -20v10l100 20z" />
    <glyph glyph-name="otilde" unicode="&#xf5;" horiz-adv-x="410" 
d="M400 203q0 -42 -15.5 -78.5t-42.5 -64t-63 -43.5t-77 -17h-4q-41 1 -77 17t-63 43.5t-42.5 64t-15.5 78.5v394q0 41 15.5 77.5t42.5 64.5t63 44t77 17q42 0 79 -16t64 -43.5t43 -64.5t16 -79v-394zM390 597q0 39 -15 74t-40.5 61t-60 41.5t-73.5 16.5q-40 0 -74.5 -15.5
t-60.5 -42t-41 -61.5t-15 -74v-394q0 -40 15 -75t41 -61.5t60.5 -41.5t74.5 -15q39 0 73.5 15.5t60 42t40.5 61.5t15 74v394zM219 896q-32 -11 -64.5 -10t-61.5 12v10q29 -11 59.5 -12t62.5 9q26 7 51.5 7t49.5 -5v-10q-48 12 -97 -1z" />
    <glyph glyph-name="odieresis" unicode="&#xf6;" horiz-adv-x="410" 
d="M400 203q0 -42 -15.5 -78.5t-42.5 -64t-63 -43.5t-77 -17h-4q-41 1 -77 17t-63 43.5t-42.5 64t-15.5 78.5v394q0 41 15.5 77.5t42.5 64.5t63 44t77 17q42 0 79 -16t64 -43.5t43 -64.5t16 -79v-394zM390 597q0 39 -15 74t-40.5 61t-60 41.5t-73.5 16.5q-40 0 -74.5 -15.5
t-60.5 -42t-41 -61.5t-15 -74v-394q0 -40 15 -75t41 -61.5t60.5 -41.5t74.5 -15q39 0 73.5 15.5t60 42t40.5 61.5t15 74v394zM130 905h50v-10h-50v10zM230 905h50v-10h-50v10z" />
    <glyph glyph-name="divide" unicode="&#xf7;" horiz-adv-x="210" 
d="M0 190h200v10h-200v-10zM110 100v-100h-10v100h10zM110 400v-100h-10v100h10z" />
    <glyph glyph-name="oslash" unicode="&#xf8;" horiz-adv-x="410" 
d="M400 203q0 -42 -15.5 -78.5t-42.5 -64t-63 -43.5t-77 -17h-4q-41 1 -77 17t-63 43.5t-42.5 64t-15.5 78.5v394q0 41 15.5 77.5t42.5 64.5t63 44t77 17q42 0 79 -16t64 -43.5t43 -64.5t16 -79v-394zM390 597q0 39 -15 74t-40.5 61t-60 41.5t-73.5 16.5q-40 0 -74.5 -15.5
t-60.5 -42t-41 -61.5t-15 -74v-394q0 -40 15 -75t41 -61.5t60.5 -41.5t74.5 -15q39 0 73.5 15.5t60 42t40.5 61.5t15 74v394z" />
    <glyph glyph-name="ugrave" unicode="&#xf9;" horiz-adv-x="410" 
d="M390 800h10v-597q0 -42 -15.5 -78.5t-42.5 -64t-63 -43.5t-77 -17h-4q-41 1 -77 17t-63 43.5t-42.5 64t-15.5 78.5v597h10v-597q0 -40 15 -75t41 -61.5t61 -41.5t74 -15t73.5 15.5t60 42t40.5 61.5t15 74v597zM105 900l200 -20v-10l-200 20v10z" />
    <glyph glyph-name="uacute" unicode="&#xfa;" horiz-adv-x="410" 
d="M390 800h10v-597q0 -42 -15.5 -78.5t-42.5 -64t-63 -43.5t-77 -17h-4q-41 1 -77 17t-63 43.5t-42.5 64t-15.5 78.5v597h10v-597q0 -40 15 -75t41 -61.5t61 -41.5t74 -15t73.5 15.5t60 42t40.5 61.5t15 74v597zM305 890l-200 -20v10l200 20v-10z" />
    <glyph glyph-name="ucircumflex" unicode="&#xfb;" horiz-adv-x="410" 
d="M390 800h10v-597q0 -42 -15.5 -78.5t-42.5 -64t-63 -43.5t-77 -17h-4q-41 1 -77 17t-63 43.5t-42.5 64t-15.5 78.5v597h10v-597q0 -40 15 -75t41 -61.5t61 -41.5t74 -15t73.5 15.5t60 42t40.5 61.5t15 74v597zM305 880v-10l-100 20l-100 -20v10l100 20z" />
    <glyph glyph-name="udieresis" unicode="&#xfc;" horiz-adv-x="410" 
d="M390 800h10v-597q0 -42 -15.5 -78.5t-42.5 -64t-63 -43.5t-77 -17h-4q-41 1 -77 17t-63 43.5t-42.5 64t-15.5 78.5v597h10v-597q0 -40 15 -75t41 -61.5t61 -41.5t74 -15t73.5 15.5t60 42t40.5 61.5t15 74v597zM130 905h50v-10h-50v10zM230 905h50v-10h-50v10z" />
    <glyph glyph-name="yacute" unicode="&#xfd;" horiz-adv-x="410" 
d="M195 397l-195 403h11l189 -388l189 388h11l-195 -403v-397h-10v397zM305 890l-200 -20v10l200 20v-10z" />
    <glyph glyph-name="ydieresis" unicode="&#xff;" horiz-adv-x="410" 
d="M130 905h50v-10h-50v10zM230 905h50v-10h-50v10zM195 397l-195 403h11l189 -388l189 388h11l-195 -403v-397h-10v397z" />
    <glyph glyph-name="OE" unicode="&#x152;" 
d="M400 0q-83 0 -156 31.5t-127 85.5t-85.5 127t-31.5 156t31.5 156t85.5 127t127 85.5t156 31.5h400v-10h-390v-385h390v-10h-390v-385h390v-10h-400zM10 400q0 -81 30.5 -152t83.5 -124t124 -83.5t152 -30.5v780q-81 0 -152 -30.5t-124 -83.5t-83.5 -124t-30.5 -152z" />
    <glyph glyph-name="oe" unicode="&#x153;" horiz-adv-x="410" 
d="M0 597q0 41 15.5 77.5t42.5 64.5t63 44t77 17h202v-10h-190v-385h190v-10h-190v-385h190v-10h-202q-41 1 -77 17t-63 43.5t-42.5 64t-15.5 78.5v394zM200 790q-40 -1 -74.5 -16.5t-60 -42t-40.5 -61t-15 -73.5v-394q0 -40 15 -75t40.5 -61.5t60 -41.5t74.5 -15v780z" />
    <glyph glyph-name="Scaron" unicode="&#x160;" 
d="M405 801q-42 0 -70.5 29t-29.5 71h10q1 -38 26.5 -64t63.5 -26q37 0 63 26t27 64h10q0 -21 -8.5 -39.5t-22 -32t-31.5 -21t-38 -7.5zM790 203q0 40 -15 75t-40.5 61t-60.5 41t-74 15h-400q-41 0 -77.5 16t-63.5 43t-43 64t-16 79t16 79t43 64.5t63.5 43.5t77.5 16h404
q40 -1 75.5 -17t62 -43t42.5 -63.5t16 -76.5h-10q0 39 -15.5 74t-41 60.5t-60 40.5t-73.5 15h-400q-39 0 -74 -15t-60.5 -41.5t-40.5 -61.5t-15 -75t14.5 -74.5t40 -60.5t59 -41t72.5 -16h408q40 -1 76 -17t62.5 -43.5t42 -64t15.5 -77.5q0 -42 -16 -79t-43 -64.5
t-63.5 -43.5t-77.5 -16h-400q-41 0 -77 15.5t-63 42.5t-43 63.5t-17 78.5h10q1 -39 15.5 -73.5t40 -60t59 -40.5t71.5 -16h404q39 0 74 15t60.5 41.5t40.5 61.5t15 75z" />
    <glyph glyph-name="scaron" unicode="&#x161;" horiz-adv-x="410" 
d="M0 598q0 42 15.5 78.5t43 64t64 43.5t78.5 16h1h1q41 -1 77 -17.5t62.5 -44t42 -64t15.5 -77.5v-3h-10v3q0 39 -15 73.5t-40.5 61t-59.5 42t-73 16.5h-1h-3q-39 -1 -73.5 -16.5t-60 -41.5t-40 -60.5t-14.5 -73.5q0 -40 15 -75t40.5 -61t60.5 -41.5t74 -15.5h1h1h-1
q41 -1 77.5 -17t63.5 -43t42.5 -63.5t15.5 -78.5q0 -41 -15 -77t-41.5 -63.5t-62 -44.5t-75.5 -18h-4h-4q-41 1 -77 17t-63 43.5t-42.5 64t-15.5 78.5v3h10v-3q0 -39 14.5 -74t40 -61t60 -41.5t73.5 -16.5h4q39 1 73 16.5t59.5 41.5t40.5 61t15 74t-15 73.5t-40.5 60.5
t-59.5 41.5t-73 16.5q-42 0 -79 16t-64 43.5t-43 64.5t-16 79zM105 890v10l100 -20l100 20v-10l-100 -20z" />
    <glyph glyph-name="Ydieresis" unicode="&#x178;" 
d="M395 397l-3 3l-399 400h14l393 -392l393 392h14l-402 -402v-398h-10v397zM330 906h50v-10h-50v10zM430 906h50v-10h-50v10z" />
    <glyph glyph-name="Zcaron" unicode="&#x17d;" horiz-adv-x="811" 
d="M405 801q-42 0 -70.5 29t-29.5 71h10q1 -38 26.5 -64t63.5 -26q37 0 63 26t27 64h10q0 -21 -8.5 -39.5t-22 -32t-31.5 -21t-38 -7.5zM1 800h799v-7l-783 -783h783v-10h-800v8l783 782h-782v10z" />
    <glyph glyph-name="zcaron" unicode="&#x17e;" horiz-adv-x="411" 
d="M205 800q-42 0 -70.5 29t-29.5 71h10q1 -38 26.5 -64t63.5 -26q37 0 63 26t27 64h10q0 -21 -8.5 -39.5t-22 -32t-31.5 -21t-38 -7.5zM1 800h399l-383 -790h383v-10h-400l384 790h-383v10z" />
    <glyph glyph-name="circumflex" unicode="&#x2c6;" horiz-adv-x="210" 
d="M200 880v-10l-100 20l-100 -20v10l100 20z" />
    <glyph glyph-name="caron" unicode="&#x2c7;" horiz-adv-x="210" 
d="M0 890v10l100 -20l100 20v-10l-100 -20z" />
    <glyph glyph-name="breve" unicode="&#x2d8;" horiz-adv-x="210" 
d="M100 800q-42 0 -70.5 29t-29.5 71h10q1 -38 26.5 -64t63.5 -26q37 0 63 26t27 64h10q0 -21 -8.5 -39.5t-22 -32t-31.5 -21t-38 -7.5z" />
    <glyph glyph-name="ring" unicode="&#x2da;" horiz-adv-x="210" 
d="M0 898q0 21 8 40t21.5 33t31.5 22t39 8t39 -8t31.5 -22t21.5 -33t8 -40t-8 -40t-21.5 -32.5t-31.5 -21.5t-39 -8t-39 8t-31.5 21.5t-21.5 32.5t-8 40zM10 898q0 -19 7 -36t19 -29.5t28.5 -19.5t35.5 -7t35.5 7t28.5 19.5t19 29.5t7 36t-7 36t-19 29.5t-28.5 20t-35.5 7.5
t-35.5 -7.5t-28.5 -20t-19 -29.5t-7 -36z" />
    <glyph glyph-name="tilde" unicode="&#x2dc;" horiz-adv-x="233" 
d="M126 896q-32 -11 -64.5 -10t-61.5 12v10q29 -11 59.5 -12t62.5 9q26 7 51.5 7t49.5 -5v-10q-48 12 -97 -1z" />
    <glyph glyph-name="hungarumlaut" unicode="&#x2dd;" horiz-adv-x="310" 
d="M200 890l-200 -50v10l200 50v-10zM300 890l-200 -50v10l200 50v-10z" />
    <glyph glyph-name="endash" unicode="&#x2013;" horiz-adv-x="410" 
d="M0 400h400v-10h-400v10z" />
    <glyph glyph-name="emdash" unicode="&#x2014;" horiz-adv-x="410" 
d="M0 400h400v-10h-400v10z" />
    <glyph glyph-name="quoteleft" unicode="&#x2018;" horiz-adv-x="40" 
d="M30 800l-20 -200h-10l20 200h10z" />
    <glyph glyph-name="quoteright" unicode="&#x2019;" horiz-adv-x="40" 
d="M30 800l-20 -200h-10l20 200h10z" />
    <glyph glyph-name="quotesinglbase" unicode="&#x201a;" horiz-adv-x="40" 
d="M30 200l-20 -200h-10l20 200h10z" />
    <glyph glyph-name="quotedblleft" unicode="&#x201c;" horiz-adv-x="110" 
d="M30 800l-20 -200h-10l20 200h10zM100 800l-20 -200h-10l20 200h10z" />
    <glyph glyph-name="quotedblright" unicode="&#x201d;" horiz-adv-x="110" 
d="M30 800l-20 -200h-10l20 200h10zM100 800l-20 -200h-10l20 200h10z" />
    <glyph glyph-name="quotedblbase" unicode="&#x201e;" horiz-adv-x="110" 
d="M30 200l-20 -200h-10l20 200h10zM100 200l-20 -200h-10l20 200h10z" />
    <glyph glyph-name="bullet" unicode="&#x2022;" horiz-adv-x="210" 
d="M0 300q0 21 8 39.5t21.5 32t31.5 21t39 7.5t39 -7.5t31.5 -21t21.5 -32t8 -39.5t-8 -39.5t-21.5 -32t-31.5 -21t-39 -7.5t-39 7.5t-31.5 21t-21.5 32t-8 39.5z" />
    <glyph glyph-name="ellipsis" unicode="&#x2026;" horiz-adv-x="60" 
d="M10 100v-100h-10v100h10zM30 100v-100h-10v100h10zM50 100v-100h-10v100h10z" />
    <glyph glyph-name="guilsinglleft" unicode="&#x2039;" horiz-adv-x="65" 
d="M55 100h-10l-45 200l45 200h10l-45 -200z" />
    <glyph glyph-name="guilsinglright" unicode="&#x203a;" horiz-adv-x="65" 
d="M0 500h10l45 -200l-45 -200h-10l45 200z" />
    <glyph glyph-name="fraction" unicode="&#x2044;" horiz-adv-x="310" 
d="M290 800h10l-290 -800h-10z" />
    <glyph glyph-name="Euro" unicode="&#x20ac;" 
d="M0 500h42q17 64 53.5 119t87.5 95.5t114 63t133 22.5q63 0 120 -18.5t105.5 -51.5t85.5 -78.5t59 -100.5h-11q-22 52 -58.5 96t-83 76t-102 49.5t-115.5 17.5q-68 0 -129 -22t-110.5 -61t-85.5 -92t-52 -115h577v-10h-580q-10 -41 -10 -90q0 -54 13 -100h577v-10h-574
q18 -61 53.5 -112t84.5 -88.5t109.5 -58.5t126.5 -21q60 0 115.5 17.5t102 49.5t83 75.5t58.5 96.5h11q-22 -55 -59 -100.5t-85.5 -78.5t-105.5 -51.5t-120 -18.5q-69 0 -131 21.5t-112.5 60.5t-87 92t-54.5 116h-45v10h42q-12 48 -12 100q0 49 10 90h-40v10z" />
    <glyph glyph-name="trademark" unicode="&#x2122;" 
d="M593 601l-183 185v-386h-10v400h10l190 -192l190 192h10v-400h-10v386l-184 -185l-6 -7zM0 800h390v-10h-185v-390h-10v390h-195v10z" />
    <glyph glyph-name="minus" unicode="&#x2212;" horiz-adv-x="410" 
d="M0 405h400v-10h-400v10z" />
  </font>
</defs>
</svg>
